<svg width="1370" height="602" viewBox="0 0 1370 602" fill="none" xmlns="http://www.w3.org/2000/svg">
<rect width="1370" height="602" rx="20" fill="white"/>
<g clip-path="url(#clip0_1527_231)">
<ellipse cx="329.5" cy="280.5" rx="280.5" ry="260.5" fill="#1677FF"/>
<path d="M151.8 1.46612C128.733 3.86612 107.933 11.3328 88.4665 24.1328C52.3332 47.9995 28.9999 86.6661 24.3332 130.666C22.5999 147.866 22.5999 435.999 24.3332 454.933C26.5999 478.533 35.1332 502.933 47.9332 522.399C54.5999 532.399 70.8665 549.333 81.6665 557.599C92.9999 566.266 116.867 577.866 130.6 581.333C136.6 582.799 147 584.533 153.933 585.333C170.733 587.066 459.133 587.066 477.933 585.333C501.533 583.066 525.933 574.533 545.4 561.733C555.4 555.066 572.333 538.799 580.6 527.999C589.267 516.666 600.867 492.799 604.333 479.066C605.8 473.066 607.533 462.666 608.333 455.733C610.067 438.933 610.067 150.533 608.333 131.733C606.067 108.133 597.533 83.7328 584.733 64.2661C578.067 54.2661 561.8 37.3328 551 29.0661C539.667 20.3994 515.8 8.79945 502.067 5.33278C496.067 3.86612 485.667 2.13278 478.733 1.33278C463.667 -0.267218 167 -0.133885 151.8 1.46612ZM335.667 94.7995C339.667 96.7995 343.933 100.399 346.333 103.866C349.8 108.799 350.333 110.933 350.733 119.733L351.267 129.999L345.4 134.266C328.467 146.533 314.867 163.866 308.6 181.333C300.867 202.666 301 229.866 309.133 266.666C315.8 296.666 324.733 316.933 341.8 339.866L351 352.399L350.867 404.533C350.867 440.933 350.333 457.999 349.267 460.933C347.133 466.666 341.4 472.666 334.733 476.266C329.267 479.199 327.267 479.333 298.6 479.733C271.667 480.133 268.2 480.399 268.6 482.266C269.133 485.333 283.133 492.666 297.667 497.599C309.8 501.733 311.133 501.866 332.333 501.999C352.867 501.999 355.133 501.733 367 498.133C387.4 491.999 399.533 484.933 412.6 471.599C422.067 461.999 428.467 451.333 433.133 437.599C435.8 429.466 436.733 423.733 437.267 409.733C437.933 393.466 437.8 391.866 435.133 387.599C431 380.933 425.667 377.199 405.533 367.733C361.667 346.666 334.6 311.199 323.667 260.266C319 238.933 316.733 210.933 318.733 199.466C323 173.466 342.733 154.399 366.067 153.733C374.067 153.599 375.533 153.066 379.933 149.333C384.467 145.333 385.267 145.066 393.133 145.599C400.467 145.999 402.067 146.666 405.533 150.266C407.667 152.533 409.933 156.666 410.467 159.333C411.8 166.933 410.467 178.399 407.4 182.399C400.467 191.999 386.2 193.066 378.067 184.399C375.667 181.866 373.667 178.933 373.667 177.733C373.667 174.399 360.733 176.266 354.333 180.533C344.067 187.599 340.333 196.399 340.333 213.866C340.333 253.999 355 297.066 376.6 320.533C395.933 341.466 416.067 351.199 443.667 352.799C464.467 353.999 484.467 348.266 502.067 336.133C509.133 331.333 521.667 318.533 527.667 310.133C539.133 293.999 549 267.733 553.133 242.666C555.267 229.599 555.533 204.133 553.667 197.333C550.6 186.133 538.733 175.999 528.733 175.999C524.867 175.999 523 176.533 523 177.733C523 178.666 521 181.466 518.467 183.866C508.733 193.333 493.133 191.599 487.267 180.399C486.333 178.799 485.667 172.533 485.667 166.533V155.733L491 150.399C496.333 145.066 496.333 145.066 505 145.599C512.067 145.999 514.333 146.799 517.4 149.733C520.6 152.799 522.333 153.333 529.133 153.333C543 153.333 561.267 164.533 569.133 177.999C579.667 196.133 580.467 226.133 571.533 263.466C563.8 295.599 551.133 319.866 532.067 338.799C517.133 353.733 508.733 359.199 484.2 370.533C471.8 376.266 465.267 381.066 462.467 386.533C461.4 388.666 460.333 397.333 459.933 408.666C459.4 420.533 458.067 431.466 456.333 438.666C448.867 469.333 425.267 497.199 394.333 511.999C359.533 528.533 315.667 529.599 279 514.533C266.6 509.333 257 503.599 245 493.999C233.4 484.666 226.333 476.266 221.533 465.999C214.867 451.999 213.667 442.133 213.667 404.266C213.667 384.266 213 367.866 212.2 364.933C211.267 361.466 209.4 359.066 206.6 357.333C202.6 354.799 199.533 354.666 148.867 354.666H95.5332L88.7332 351.199C83.3999 348.666 81.1332 346.533 79.1332 342.133C76.4665 336.799 76.3332 334.266 76.3332 287.466C76.3332 241.333 76.4665 238.266 78.9999 233.333C80.4665 230.533 83.5332 226.799 85.9332 225.066L90.3332 221.999L145.667 221.333C207 220.533 207 220.533 211.267 211.999C213.4 207.866 213.667 202.533 213.667 161.999C213.667 134.533 214.2 114.666 215.133 111.599C216.733 105.733 223 98.1328 228.867 94.9328C233.4 92.3995 256.2 91.3328 303.667 91.3328C328.333 91.3328 329.267 91.4661 335.667 94.7995Z" fill="white"/>
</g>
<path d="M695.42 254.52C685.287 254.52 675.913 252.873 667.3 249.58C658.813 246.16 651.403 241.41 645.07 235.33C638.863 229.123 633.987 221.903 630.44 213.67C626.893 205.437 625.12 196.38 625.12 186.5C625.12 176.62 626.893 167.563 630.44 159.33C633.987 151.097 638.927 143.94 645.26 137.86C651.593 131.653 659.003 126.903 667.49 123.61C676.103 120.19 685.477 118.48 695.61 118.48C705.87 118.48 715.307 120.253 723.92 123.8C732.66 127.22 740.07 132.35 746.15 139.19L733.8 151.16C728.733 145.84 723.033 141.913 716.7 139.38C710.367 136.72 703.59 135.39 696.37 135.39C688.897 135.39 681.93 136.657 675.47 139.19C669.137 141.723 663.627 145.27 658.94 149.83C654.253 154.39 650.58 159.837 647.92 166.17C645.387 172.377 644.12 179.153 644.12 186.5C644.12 193.847 645.387 200.687 647.92 207.02C650.58 213.227 654.253 218.61 658.94 223.17C663.627 227.73 669.137 231.277 675.47 233.81C681.93 236.343 688.897 237.61 696.37 237.61C703.59 237.61 710.367 236.343 716.7 233.81C723.033 231.15 728.733 227.097 733.8 221.65L746.15 233.62C740.07 240.46 732.66 245.653 723.92 249.2C715.307 252.747 705.807 254.52 695.42 254.52ZM790.457 254.14C780.324 254.14 771.33 251.923 763.477 247.49C755.624 243.057 749.417 236.977 744.857 229.25C740.297 221.397 738.017 212.53 738.017 202.65C738.017 192.643 740.297 183.777 744.857 176.05C749.417 168.323 755.624 162.307 763.477 158C771.33 153.567 780.324 151.35 790.457 151.35C800.464 151.35 809.394 153.567 817.247 158C825.227 162.307 831.434 168.323 835.867 176.05C840.427 183.65 842.707 192.517 842.707 202.65C842.707 212.657 840.427 221.523 835.867 229.25C831.434 236.977 825.227 243.057 817.247 247.49C809.394 251.923 800.464 254.14 790.457 254.14ZM790.457 238.18C796.917 238.18 802.68 236.723 807.747 233.81C812.94 230.897 816.994 226.78 819.907 221.46C822.82 216.013 824.277 209.743 824.277 202.65C824.277 195.43 822.82 189.223 819.907 184.03C816.994 178.71 812.94 174.593 807.747 171.68C802.68 168.767 796.917 167.31 790.457 167.31C783.997 167.31 778.234 168.767 773.167 171.68C768.1 174.593 764.047 178.71 761.007 184.03C757.967 189.223 756.447 195.43 756.447 202.65C756.447 209.743 757.967 216.013 761.007 221.46C764.047 226.78 768.1 230.897 773.167 233.81C778.234 236.723 783.997 238.18 790.457 238.18ZM902.703 151.35C910.936 151.35 918.156 152.933 924.363 156.1C930.696 159.267 935.636 164.08 939.183 170.54C942.729 177 944.503 185.17 944.503 195.05V253H926.263V197.14C926.263 187.387 923.856 180.04 919.043 175.1C914.356 170.16 907.706 167.69 899.093 167.69C892.633 167.69 886.996 168.957 882.183 171.49C877.369 174.023 873.633 177.76 870.973 182.7C868.439 187.64 867.173 193.783 867.173 201.13V253H848.933V152.3H866.413V179.47L863.563 172.25C866.856 165.663 871.923 160.533 878.763 156.86C885.603 153.187 893.583 151.35 902.703 151.35ZM1013.03 151.35C1021.26 151.35 1028.48 152.933 1034.69 156.1C1041.02 159.267 1045.96 164.08 1049.51 170.54C1053.06 177 1054.83 185.17 1054.83 195.05V253H1036.59V197.14C1036.59 187.387 1034.18 180.04 1029.37 175.1C1024.68 170.16 1018.03 167.69 1009.42 167.69C1002.96 167.69 997.322 168.957 992.509 171.49C987.695 174.023 983.959 177.76 981.299 182.7C978.765 187.64 977.499 193.783 977.499 201.13V253H959.259V152.3H976.739V179.47L973.889 172.25C977.182 165.663 982.249 160.533 989.089 156.86C995.929 153.187 1003.91 151.35 1013.03 151.35ZM1114.42 254.14C1103.66 254.14 1094.16 251.923 1085.92 247.49C1077.82 243.057 1071.48 236.977 1066.92 229.25C1062.49 221.523 1060.27 212.657 1060.27 202.65C1060.27 192.643 1062.43 183.777 1066.73 176.05C1071.17 168.323 1077.18 162.307 1084.78 158C1092.51 153.567 1101.19 151.35 1110.81 151.35C1120.57 151.35 1129.18 153.503 1136.65 157.81C1144.13 162.117 1149.95 168.197 1154.13 176.05C1158.44 183.777 1160.59 192.833 1160.59 203.22C1160.59 203.98 1160.53 204.867 1160.4 205.88C1160.4 206.893 1160.34 207.843 1160.21 208.73H1074.52V195.62H1150.71L1143.3 200.18C1143.43 193.72 1142.1 187.957 1139.31 182.89C1136.53 177.823 1132.66 173.897 1127.72 171.11C1122.91 168.197 1117.27 166.74 1110.81 166.74C1104.48 166.74 1098.84 168.197 1093.9 171.11C1088.96 173.897 1085.1 177.887 1082.31 183.08C1079.53 188.147 1078.13 193.973 1078.13 200.56V203.6C1078.13 210.313 1079.65 216.33 1082.69 221.65C1085.86 226.843 1090.23 230.897 1095.8 233.81C1101.38 236.723 1107.77 238.18 1114.99 238.18C1120.95 238.18 1126.33 237.167 1131.14 235.14C1136.08 233.113 1140.39 230.073 1144.06 226.02L1154.13 237.8C1149.57 243.12 1143.87 247.173 1137.03 249.96C1130.32 252.747 1122.78 254.14 1114.42 254.14ZM1210.81 254.14C1200.55 254.14 1191.37 251.923 1183.26 247.49C1175.28 243.057 1169.01 236.977 1164.45 229.25C1159.89 221.523 1157.61 212.657 1157.61 202.65C1157.61 192.643 1159.89 183.777 1164.45 176.05C1169.01 168.323 1175.28 162.307 1183.26 158C1191.37 153.567 1200.55 151.35 1210.81 151.35C1219.93 151.35 1228.04 153.187 1235.13 156.86C1242.35 160.407 1247.93 165.727 1251.85 172.82L1237.98 181.75C1234.69 176.81 1230.64 173.2 1225.82 170.92C1221.14 168.513 1216.07 167.31 1210.62 167.31C1204.04 167.31 1198.15 168.767 1192.95 171.68C1187.76 174.593 1183.64 178.71 1180.6 184.03C1177.56 189.223 1176.04 195.43 1176.04 202.65C1176.04 209.87 1177.56 216.14 1180.6 221.46C1183.64 226.78 1187.76 230.897 1192.95 233.81C1198.15 236.723 1204.04 238.18 1210.62 238.18C1216.07 238.18 1221.14 237.04 1225.82 234.76C1230.64 232.353 1234.69 228.68 1237.98 223.74L1251.85 232.48C1247.93 239.447 1242.35 244.83 1235.13 248.63C1228.04 252.303 1219.93 254.14 1210.81 254.14ZM1292.35 254.14C1282.21 254.14 1274.36 251.417 1268.79 245.97C1263.21 240.523 1260.43 232.733 1260.43 222.6V130.26H1278.67V221.84C1278.67 227.287 1280 231.467 1282.66 234.38C1285.44 237.293 1289.37 238.75 1294.44 238.75C1300.14 238.75 1304.89 237.167 1308.69 234L1314.39 247.11C1311.6 249.517 1308.24 251.29 1304.32 252.43C1300.52 253.57 1296.53 254.14 1292.35 254.14ZM1243.33 167.31V152.3H1307.55V167.31H1243.33ZM674.71 486.52C664.577 486.52 654.887 485 645.64 481.96C636.393 478.793 629.11 474.74 623.79 469.8L630.82 454.98C635.887 459.413 642.347 463.087 650.2 466C658.053 468.913 666.223 470.37 674.71 470.37C682.437 470.37 688.707 469.483 693.52 467.71C698.333 465.937 701.88 463.53 704.16 460.49C706.44 457.323 707.58 453.777 707.58 449.85C707.58 445.29 706.06 441.617 703.02 438.83C700.107 436.043 696.243 433.827 691.43 432.18C686.743 430.407 681.55 428.887 675.85 427.62C670.15 426.353 664.387 424.897 658.56 423.25C652.86 421.477 647.603 419.26 642.79 416.6C638.103 413.94 634.303 410.393 631.39 405.96C628.477 401.4 627.02 395.573 627.02 388.48C627.02 381.64 628.793 375.37 632.34 369.67C636.013 363.843 641.587 359.22 649.06 355.8C656.66 352.253 666.287 350.48 677.94 350.48C685.667 350.48 693.33 351.493 700.93 353.52C708.53 355.547 715.117 358.46 720.69 362.26L714.42 377.46C708.72 373.66 702.703 370.937 696.37 369.29C690.037 367.517 683.893 366.63 677.94 366.63C670.467 366.63 664.323 367.58 659.51 369.48C654.697 371.38 651.15 373.913 648.87 377.08C646.717 380.247 645.64 383.793 645.64 387.72C645.64 392.407 647.097 396.143 650.01 398.93C653.05 401.717 656.913 403.933 661.6 405.58C666.413 407.227 671.67 408.747 677.37 410.14C683.07 411.407 688.77 412.863 694.47 414.51C700.297 416.157 705.553 418.31 710.24 420.97C715.053 423.63 718.917 427.177 721.83 431.61C724.743 436.043 726.2 441.743 726.2 448.71C726.2 455.423 724.363 461.693 720.69 467.52C717.017 473.22 711.317 477.843 703.59 481.39C695.99 484.81 686.363 486.52 674.71 486.52ZM794.808 485V463.72L793.858 459.73V423.44C793.858 415.713 791.578 409.76 787.018 405.58C782.584 401.273 775.871 399.12 766.878 399.12C760.924 399.12 755.098 400.133 749.398 402.16C743.698 404.06 738.884 406.657 734.958 409.95L727.358 396.27C732.551 392.09 738.758 388.923 745.978 386.77C753.324 384.49 760.988 383.35 768.968 383.35C782.774 383.35 793.414 386.707 800.888 393.42C808.361 400.133 812.098 410.393 812.098 424.2V485H794.808ZM761.748 486.14C754.274 486.14 747.688 484.873 741.988 482.34C736.414 479.807 732.108 476.323 729.068 471.89C726.028 467.33 724.508 462.2 724.508 456.5C724.508 451.053 725.774 446.113 728.308 441.68C730.968 437.247 735.211 433.7 741.038 431.04C746.991 428.38 754.971 427.05 764.978 427.05H796.898V440.16H765.738C756.618 440.16 750.474 441.68 747.308 444.72C744.141 447.76 742.558 451.433 742.558 455.74C742.558 460.68 744.521 464.67 748.448 467.71C752.374 470.623 757.821 472.08 764.788 472.08C771.628 472.08 777.581 470.56 782.648 467.52C787.841 464.48 791.578 460.047 793.858 454.22L797.468 466.76C795.061 472.713 790.818 477.463 784.738 481.01C778.658 484.43 770.994 486.14 761.748 486.14ZM869.223 486.14C860.609 486.14 853.009 484.557 846.423 481.39C839.963 478.223 834.896 473.41 831.223 466.95C827.676 460.363 825.903 452.13 825.903 442.25V384.3H844.143V440.16C844.143 450.04 846.486 457.45 851.173 462.39C855.986 467.33 862.699 469.8 871.313 469.8C877.646 469.8 883.156 468.533 887.843 466C892.529 463.34 896.139 459.54 898.673 454.6C901.206 449.533 902.473 443.453 902.473 436.36V384.3H920.713V485H903.423V457.83L906.273 465.05C902.979 471.763 898.039 476.957 891.453 480.63C884.866 484.303 877.456 486.14 869.223 486.14ZM859.153 369.67L884.993 344.97H908.173L876.253 369.67H859.153ZM978.046 486.14C968.293 486.14 959.553 483.987 951.826 479.68C944.226 475.373 938.21 469.357 933.776 461.63C929.343 453.903 927.126 444.91 927.126 434.65C927.126 424.39 929.343 415.46 933.776 407.86C938.21 400.133 944.226 394.117 951.826 389.81C959.553 385.503 968.293 383.35 978.046 383.35C986.533 383.35 994.196 385.25 1001.04 389.05C1007.88 392.85 1013.32 398.55 1017.38 406.15C1021.56 413.75 1023.65 423.25 1023.65 434.65C1023.65 446.05 1021.62 455.55 1017.57 463.15C1013.64 470.75 1008.26 476.513 1001.42 480.44C994.576 484.24 986.786 486.14 978.046 486.14ZM979.566 470.18C985.9 470.18 991.6 468.723 996.666 465.81C1001.86 462.897 1005.91 458.78 1008.83 453.46C1011.87 448.013 1013.39 441.743 1013.39 434.65C1013.39 427.43 1011.87 421.223 1008.83 416.03C1005.91 410.71 1001.86 406.593 996.666 403.68C991.6 400.767 985.9 399.31 979.566 399.31C973.106 399.31 967.343 400.767 962.276 403.68C957.21 406.593 953.156 410.71 950.116 416.03C947.076 421.223 945.556 427.43 945.556 434.65C945.556 441.743 947.076 448.013 950.116 453.46C953.156 458.78 957.21 462.897 962.276 465.81C967.343 468.723 973.106 470.18 979.566 470.18ZM1013.96 485V457.83L1015.1 434.46L1013.2 411.09V344.02H1031.44V485H1013.96ZM1091.79 486.14C1081.02 486.14 1071.52 483.923 1063.29 479.49C1055.18 475.057 1048.85 468.977 1044.29 461.25C1039.85 453.523 1037.64 444.657 1037.64 434.65C1037.64 424.643 1039.79 415.777 1044.1 408.05C1048.53 400.323 1054.55 394.307 1062.15 390C1069.87 385.567 1078.55 383.35 1088.18 383.35C1097.93 383.35 1106.54 385.503 1114.02 389.81C1121.49 394.117 1127.32 400.197 1131.5 408.05C1135.8 415.777 1137.96 424.833 1137.96 435.22C1137.96 435.98 1137.89 436.867 1137.77 437.88C1137.77 438.893 1137.7 439.843 1137.58 440.73H1051.89V427.62H1128.08L1120.67 432.18C1120.79 425.72 1119.46 419.957 1116.68 414.89C1113.89 409.823 1110.03 405.897 1105.09 403.11C1100.27 400.197 1094.64 398.74 1088.18 398.74C1081.84 398.74 1076.21 400.197 1071.27 403.11C1066.33 405.897 1062.46 409.887 1059.68 415.08C1056.89 420.147 1055.5 425.973 1055.5 432.56V435.6C1055.5 442.313 1057.02 448.33 1060.06 453.65C1063.22 458.843 1067.59 462.897 1073.17 465.81C1078.74 468.723 1085.14 470.18 1092.36 470.18C1098.31 470.18 1103.69 469.167 1108.51 467.14C1113.45 465.113 1117.75 462.073 1121.43 458.02L1131.5 469.8C1126.94 475.12 1121.24 479.173 1114.4 481.96C1107.68 484.747 1100.15 486.14 1091.79 486.14Z" fill="#1677FF"/>
<defs>
<clipPath id="clip0_1527_231">
<rect width="586.667" height="586.667" fill="white" transform="translate(23)"/>
</clipPath>
</defs>
</svg>
