<svg width="587" height="587" viewBox="0 0 587 587" fill="none" xmlns="http://www.w3.org/2000/svg">
<g clip-path="url(#clip0_1527_214)">
<ellipse cx="306.5" cy="280.5" rx="280.5" ry="260.5" fill="white"/>
<path d="M128.8 1.46612C105.733 3.86612 84.9332 11.3328 65.4665 24.1328C29.3332 47.9995 5.99987 86.6661 1.3332 130.666C-0.40013 147.866 -0.40013 435.999 1.3332 454.933C3.59987 478.533 12.1332 502.933 24.9332 522.399C31.5999 532.399 47.8665 549.333 58.6665 557.599C69.9999 566.266 93.8665 577.866 107.6 581.333C113.6 582.799 124 584.533 130.933 585.333C147.733 587.066 436.133 587.066 454.933 585.333C478.533 583.066 502.933 574.533 522.4 561.733C532.4 555.066 549.333 538.799 557.6 527.999C566.267 516.666 577.867 492.799 581.333 479.066C582.8 473.066 584.533 462.666 585.333 455.733C587.067 438.933 587.067 150.533 585.333 131.733C583.067 108.133 574.533 83.7328 561.733 64.2661C555.067 54.2661 538.8 37.3328 528 29.0661C516.667 20.3994 492.8 8.79945 479.067 5.33278C473.067 3.86612 462.667 2.13278 455.733 1.33278C440.667 -0.267218 144 -0.133885 128.8 1.46612ZM312.667 94.7995C316.667 96.7995 320.933 100.399 323.333 103.866C326.8 108.799 327.333 110.933 327.733 119.733L328.267 129.999L322.4 134.266C305.467 146.533 291.867 163.866 285.6 181.333C277.867 202.666 278 229.866 286.133 266.666C292.8 296.666 301.733 316.933 318.8 339.866L328 352.399L327.867 404.533C327.867 440.933 327.333 457.999 326.267 460.933C324.133 466.666 318.4 472.666 311.733 476.266C306.267 479.199 304.267 479.333 275.6 479.733C248.667 480.133 245.2 480.399 245.6 482.266C246.133 485.333 260.133 492.666 274.667 497.599C286.8 501.733 288.133 501.866 309.333 501.999C329.867 501.999 332.133 501.733 344 498.133C364.4 491.999 376.533 484.933 389.6 471.599C399.067 461.999 405.467 451.333 410.133 437.599C412.8 429.466 413.733 423.733 414.267 409.733C414.933 393.466 414.8 391.866 412.133 387.599C408 380.933 402.667 377.199 382.533 367.733C338.667 346.666 311.6 311.199 300.667 260.266C296 238.933 293.733 210.933 295.733 199.466C300 173.466 319.733 154.399 343.067 153.733C351.067 153.599 352.533 153.066 356.933 149.333C361.467 145.333 362.267 145.066 370.133 145.599C377.467 145.999 379.067 146.666 382.533 150.266C384.667 152.533 386.933 156.666 387.467 159.333C388.8 166.933 387.467 178.399 384.4 182.399C377.467 191.999 363.2 193.066 355.067 184.399C352.667 181.866 350.667 178.933 350.667 177.733C350.667 174.399 337.733 176.266 331.333 180.533C321.067 187.599 317.333 196.399 317.333 213.866C317.333 253.999 332 297.066 353.6 320.533C372.933 341.466 393.067 351.199 420.667 352.799C441.467 353.999 461.467 348.266 479.067 336.133C486.133 331.333 498.667 318.533 504.667 310.133C516.133 293.999 526 267.733 530.133 242.666C532.267 229.599 532.533 204.133 530.667 197.333C527.6 186.133 515.733 175.999 505.733 175.999C501.867 175.999 500 176.533 500 177.733C500 178.666 498 181.466 495.467 183.866C485.733 193.333 470.133 191.599 464.267 180.399C463.333 178.799 462.667 172.533 462.667 166.533V155.733L468 150.399C473.333 145.066 473.333 145.066 482 145.599C489.067 145.999 491.333 146.799 494.4 149.733C497.6 152.799 499.333 153.333 506.133 153.333C520 153.333 538.267 164.533 546.133 177.999C556.667 196.133 557.467 226.133 548.533 263.466C540.8 295.599 528.133 319.866 509.067 338.799C494.133 353.733 485.733 359.199 461.2 370.533C448.8 376.266 442.267 381.066 439.467 386.533C438.4 388.666 437.333 397.333 436.933 408.666C436.4 420.533 435.067 431.466 433.333 438.666C425.867 469.333 402.267 497.199 371.333 511.999C336.533 528.533 292.667 529.599 256 514.533C243.6 509.333 234 503.599 222 493.999C210.4 484.666 203.333 476.266 198.533 465.999C191.867 451.999 190.667 442.133 190.667 404.266C190.667 384.266 190 367.866 189.2 364.933C188.267 361.466 186.4 359.066 183.6 357.333C179.6 354.799 176.533 354.666 125.867 354.666H72.5332L65.7332 351.199C60.3999 348.666 58.1332 346.533 56.1332 342.133C53.4665 336.799 53.3332 334.266 53.3332 287.466C53.3332 241.333 53.4665 238.266 55.9999 233.333C57.4665 230.533 60.5332 226.799 62.9332 225.066L67.3332 221.999L122.667 221.333C184 220.533 184 220.533 188.267 211.999C190.4 207.866 190.667 202.533 190.667 161.999C190.667 134.533 191.2 114.666 192.133 111.599C193.733 105.733 200 98.1328 205.867 94.9328C210.4 92.3995 233.2 91.3328 280.667 91.3328C305.333 91.3328 306.267 91.4661 312.667 94.7995Z" fill="#1677FF"/>
</g>
<defs>
<clipPath id="clip0_1527_214">
<rect width="586.667" height="586.667" fill="white"/>
</clipPath>
</defs>
</svg>
